# xmcd
#
# Track frame offsets: 
#        150
#        18100
#        33326
#        46145
#        60145
#        71012
#        85585
#        97714
#        111104
#        124959
#        137440
#        150349
#        163578
#        177468
#        189169
#        201303
#        209421
#        222345
#        234852
#        237522
#        248425
#        257540
#
# Disc length: 3629 seconds
#
# Revision: 0
# Processed by: cddbd v1.5.2PL0 Copyright (c) Steve Scherf et al.
# Submitted via: ExactAudioCopy v0.95b4
#
DISCID=130e2b16
DTITLE=Jimmy Ellis - At Playground Recording Studio
DYEAR=1900
DGENRE=Country
TTITLE0=Georgia Pines
TTITLE1=Anna Jones
TTITLE2=The Most Natural Thing
TTITLE3=Days Of Autumn Gold
TTITLE4=Changing
TTITLE5=My Baby's Out Of Sight
TTITLE6=I Use Her To Remind Me Of You
TTITLE7=Leigh
TTITLE8=Remember You
TTITLE9=Circle On Your Finger
TTITLE10=Tender Side Of Me
TTITLE11=I Can Love You Better
TTITLE12=Every Time You Touch Me
TTITLE13=Words
TTITLE14=Kiss The Hurt Away
TTITLE15=The Most Natural Thing (outtakes)
TTITLE16=The Most Natural Thing (outtakes)
TTITLE17=Circle On Your Finger (echo version)
TTITLE18=Changing (outtakes)
TTITLE19=Changing (alternate mix)
TTITLE20=Tender Side Of Me (outtakes)
TTITLE21=Anna Jones (outtakes)
EXTD=
EXTT0=
EXTT1=
EXTT2=
EXTT3=
EXTT4=
EXTT5=
EXTT6=
EXTT7=
EXTT8=
EXTT9=
EXTT10=
EXTT11=
EXTT12=
EXTT13=
EXTT14=
EXTT15=
EXTT16=
EXTT17=
EXTT18=
EXTT19=
EXTT20=
EXTT21=
PLAYORDER=
